<?xml version="1.0" encoding="UTF-8"?>
<svg id="Capa_1" data-name="Capa 1" xmlns="http://www.w3.org/2000/svg" viewBox="0 0 1080 1080">
  <path d="M804.78,889.48l-.85.85-.03-.04c.32-.28.6-.57.88-.81Z"/>
  <g>
    <path d="M917.5,263.88c0-55.9-45.44-101.38-101.38-101.38h-470.93c-27.1,0-51.8,10.71-70.04,28.06-.81.81-1.66,1.63-2.47,2.47l-81.49,81.45.04.04c-17.77,18.27-28.73,43.22-28.73,70.64v470.97c0,55.9,45.48,101.38,101.42,101.38h470.93c26.68,0,50.95-10.32,69.05-27.21.32-.28.6-.57.88-.81l3.43-3.43,80.53-80.43-.03-.07c17.81-18.27,28.8-43.25,28.8-70.74v-470.93ZM903.51,734.81c0,41.31-28.76,76.01-67.35,85.09-4.56,1.1-9.29,1.77-14.13,2.12-1.94.14-3.92.18-5.9.18h-470.93c-48.2,0-87.39-39.19-87.39-87.39v-470.93c0-1.98.04-3.96.18-5.9.35-4.84,1.06-9.58,2.12-14.13,9.08-38.59,43.78-67.32,85.09-67.32h470.93c48.2,0,87.39,39.15,87.39,87.35v470.93Z"/>
    <polygon points="493.29 521.94 544.42 521.94 544.42 733.01 500.14 733.01 394.59 605.55 394.59 733.01 343.46 733.01 343.46 521.94 386.96 521.94 493.29 650.64 493.29 521.94"/>
    <polygon points="523.29 264.06 575.65 264.06 575.65 475.12 524.52 475.12 524.52 361.06 476.64 462.68 442.47 462.68 394.59 361.06 394.59 475.12 343.46 475.12 343.46 264.06 395.83 264.06 459.57 401.76 523.29 264.06"/>
    <path d="M732.8,654.21c12.58-5.44,22.69-13.68,30.32-24.88,7.46-11.17,11.2-24.1,11.2-38.83,0-19.89-7-36.4-20.85-49.29-13.99-12.9-31.1-19.26-51.27-19.26h-106.65v211.07h50.99v-72.72h35.27l39.96,72.9h55.16l-44.14-78.98ZM691.13,616.75h-44.59v-51.31h44.59c18.8,0,30.78,10.6,30.78,25.05,0,15.37-11.98,26.26-30.78,26.26Z"/>
    <path d="M786.26,414.06c0,21.13-10.42,38.55-26.43,48.62-16.15,10.11-36.04,15.55-56.71,15.55-19.58,0-37.46-4.17-53.46-12.72-16.18-8.41-28.13-20.39-35.9-35.76l38.37-27.99c11.98,18.66,31.7,30.32,52.23,30.32,8.55,0,15.69-1.55,21.59-4.66,5.76-2.97,8.73-6.86,8.73-11.66,0-3.89-1.87-7.46-5.44-10.42-3.57-2.93-7.46-5.12-11.34-6.5-4.06-1.41-10.74-3.57-20.21-6.4-2.65-.78-4.81-1.38-6.22-1.87-6.54-2.01-11.8-3.71-16.01-5.12-4.2-1.38-9.19-3.11-14.63-5.44-11.17-4.49-17.24-8.55-24.84-15.37-10.88-9.47-16.01-22.09-16.64-40.74,0-12.4,3.75-23.6,11.2-33.39,7.46-9.79,16.93-17.1,28.59-22.09,11.52-4.98,23.78-7.46,36.86-7.46,34.63,0,62.3,15.09,82.97,45.09l-37.74,27.81c-13.07-18.66-28.16-27.99-45.23-27.99-14.77,0-25.05,7-25.05,17.1,0,3.89.95,7,3.89,9.47,2.97,2.65,4.84,4.38,10.42,6.4,5.44,2.01,7.92,2.79,15.55,5.12,3.71,1.24,6.82,2.33,9.15,3.11,9.05,2.93,16.5,5.58,22.4,7.77,5.9,2.33,12.12,4.98,18.48,7.92,6.4,3.11,11.52,6.22,15.41,9.33,12.12,9.47,20.81,23,20.04,41.98Z"/>
    <path d="M814.99,543.53c2.33-.74,3.78-2.76,3.78-5.41,0-3.67-2.61-5.97-6.71-5.97h-8.34v19.47h3.29v-7.56h4.7l4.24,7.56h3.78l-4.74-8.09ZM811.95,541.13h-4.95v-6.04h4.95c2.19,0,3.43,1.2,3.43,3.04s-1.24,3-3.43,3Z"/>
    <path d="M811.03,522.26c-11.34-.25-20.74,8.87-20.53,19.75-.21,10.85,9.19,20.04,20.53,19.79,11.41.25,21.03-8.9,20.81-19.79.21-10.88-9.4-20-20.81-19.75ZM823.33,553.75c-3.36,3.22-7.49,4.84-12.3,4.84s-8.8-1.63-12.09-4.84c-3.32-3.18-4.95-7.07-4.95-11.73s1.63-8.62,4.95-11.87c3.29-3.18,7.31-4.81,12.09-4.81s8.97,1.63,12.33,4.81c3.36,3.25,5.02,7.21,5.02,11.87s-1.7,8.55-5.05,11.73Z"/>
  </g>
</svg>