<?xml version="1.0" encoding="UTF-8"?>
<svg id="Capa_1" data-name="Capa 1" xmlns="http://www.w3.org/2000/svg" viewBox="0 0 1080 1080">
  <defs>
    <style>
      .cls-1 {
        fill: #fff;
      }
    </style>
  </defs>
  <path class="cls-1" d="M738.26,889.48l-.85.85-.04-.04c.32-.28.6-.57.88-.81Z"/>
  <g>
    <path class="cls-1" d="M208.64,190.56c-.85.81-1.66,1.63-2.47,2.47l2.44-2.51.04.04Z"/>
    <path class="cls-1" d="M850.99,263.88c0-55.9-45.48-101.38-101.38-101.38h-470.93c-27.1,0-51.8,10.71-70.04,28.06-.85.81-1.66,1.63-2.47,2.47l-81.49,81.45.04.04c-17.77,18.27-28.76,43.22-28.76,70.64v470.97c0,55.9,45.51,101.38,101.42,101.38h470.97c26.68,0,50.95-10.32,69.05-27.21.32-.28.6-.57.88-.81l3.43-3.43,80.53-80.43-.04-.07c17.81-18.27,28.8-43.25,28.8-70.74v-470.93ZM836.96,734.81c0,41.31-28.73,76.01-67.32,85.09-4.56,1.1-9.29,1.77-14.13,2.12-1.94.14-3.92.18-5.9.18h-470.93c-48.2,0-87.42-39.19-87.42-87.39v-470.93c0-1.98.07-3.96.21-5.9.35-4.84,1.02-9.58,2.12-14.13,9.08-38.59,43.78-67.32,85.09-67.32h470.93c48.16,0,87.35,39.15,87.35,87.35v470.93Z"/>
  </g>
  <polygon class="cls-1" points="752.43 281.8 752.43 717.25 646.95 717.25 646.95 481.91 548.19 691.59 477.62 691.59 378.89 481.91 378.89 717.25 273.38 717.25 273.38 281.8 381.44 281.8 512.92 565.9 644.38 281.8 752.43 281.8"/>
</svg>