<?xml version="1.0" encoding="UTF-8"?>
<svg id="Capa_1" data-name="Capa 1" xmlns="http://www.w3.org/2000/svg" viewBox="0 0 1080 1080">
  <path d="M804.79,889.48l-.85.85-.04-.04c.32-.28.6-.57.88-.81Z"/>
  <g>
    <path d="M275.17,190.56c-.85.81-1.66,1.63-2.47,2.47l2.44-2.51.04.04Z"/>
    <path d="M917.52,263.88c0-55.9-45.48-101.38-101.38-101.38h-470.93c-27.1,0-51.8,10.71-70.04,28.06-.85.81-1.66,1.63-2.47,2.47l-81.49,81.45.04.04c-17.77,18.27-28.76,43.22-28.76,70.64v470.97c0,55.9,45.51,101.38,101.42,101.38h470.97c26.68,0,50.95-10.32,69.05-27.21.32-.28.6-.57.88-.81l3.43-3.43,80.53-80.43-.04-.07c17.81-18.27,28.8-43.25,28.8-70.74v-470.93ZM903.49,734.81c0,41.31-28.73,76.01-67.32,85.09-4.56,1.1-9.29,1.77-14.13,2.12-1.94.14-3.92.18-5.9.18h-470.93c-48.2,0-87.42-39.19-87.42-87.39v-470.93c0-1.98.07-3.96.21-5.9.35-4.84,1.02-9.58,2.12-14.13,9.08-38.59,43.78-67.32,85.09-67.32h470.93c48.16,0,87.35,39.15,87.35,87.35v470.93Z"/>
  </g>
  <polygon points="818.96 281.8 818.96 717.25 713.48 717.25 713.48 481.91 614.72 691.59 544.15 691.59 445.42 481.91 445.42 717.25 339.91 717.25 339.91 281.8 447.97 281.8 579.45 565.9 710.9 281.8 818.96 281.8"/>
</svg>