<?xml version="1.0" encoding="UTF-8"?>
<svg id="Capa_1" data-name="Capa 1" xmlns="http://www.w3.org/2000/svg" viewBox="0 0 1080 1080">
  <defs>
    <style>
      .cls-1 {
        fill: #f1f1f1;
      }
    </style>
  </defs>
  <path class="cls-1" d="M802.29,886.4l-.81.85-.04-.04c.28-.28.57-.57.85-.81Z"/>
  <g>
    <path class="cls-1" d="M801.44,887.22l.04.04.81-.85c-.28.25-.57.53-.85.81Z"/>
    <path class="cls-1" d="M917.52,263.88c0-55.9-45.48-101.38-101.42-101.38h-470.93c-27.1,0-51.8,10.71-70,28.06-.85.81-1.7,1.63-2.51,2.47l-81.49,81.45.04.04c-17.77,18.27-28.73,43.22-28.73,70.64v470.97c0,55.9,45.48,101.38,101.42,101.38h470.93c26.68,0,50.95-10.32,69.08-27.21.28-.28.57-.57.85-.81l3.46-3.43,80.53-80.43-.07-.07c17.85-18.27,28.83-43.25,28.83-70.74v-470.93ZM801.47,887.25l-.04-.04c.28-.28.57-.57.85-.81l-.81.85ZM903.49,734.81c0,41.31-28.76,76.01-67.32,85.09-4.59,1.1-9.33,1.77-14.13,2.12-1.98.14-3.92.18-5.94.18h-470.93c-48.16,0-87.39-39.19-87.39-87.39v-470.93c0-1.98.07-3.96.21-5.9.32-4.84,1.02-9.58,2.12-14.13,9.08-38.59,43.78-67.32,85.06-67.32h470.93c48.2,0,87.39,39.15,87.39,87.35v470.93Z"/>
  </g>
  <g>
    <g>
      <path class="cls-1" d="M422.14,260.7l-40.46,87.39-40.43-87.39h-33.25v133.96h32.44v-72.44l30.39,64.52h21.7l30.39-64.52v72.44h32.44v-133.96h-33.22Z"/>
      <path class="cls-1" d="M484.4,260.7v133.96h32.47v-133.96h-32.47Z"/>
      <path class="cls-1" d="M396.48,501.94c-2.47-1.98-5.72-3.96-9.79-5.94-4.03-1.87-7.99-3.53-11.73-5.02-3.75-1.38-8.48-3.07-14.21-4.95-1.48-.49-3.43-1.17-5.79-1.98-4.84-1.48-6.43-1.98-9.89-3.25-3.53-1.27-4.73-2.37-6.61-4.03-1.87-1.59-2.44-3.57-2.44-6.04,0-6.4,6.5-10.85,15.87-10.85,10.85,0,20.42,5.94,28.69,17.77l23.99-17.67c-13.15-19.05-30.67-28.59-52.69-28.59-8.27,0-16.08,1.55-23.39,4.74-7.39,3.15-13.39,7.77-18.13,13.99-4.73,6.22-7.1,13.32-7.1,21.2.39,11.84,3.64,19.82,10.53,25.87,4.84,4.31,8.69,6.89,15.8,9.75,3.46,1.48,6.61,2.58,9.29,3.46,2.65.88,6.01,1.98,10.14,3.25.88.28,2.26.67,3.96,1.17,6.01,1.8,10.25,3.18,12.83,4.06,2.44.88,4.91,2.26,7.17,4.13,2.3,1.87,3.46,4.13,3.46,6.61,0,3.07-1.87,5.51-5.51,7.39-3.75,1.98-8.3,2.97-13.71,2.97-13.04,0-25.55-7.39-33.15-19.22l-24.38,17.74c4.95,9.79,12.54,17.39,22.79,22.69,10.18,5.44,21.52,8.09,33.92,8.09,13.15,0,25.76-3.43,36.01-9.86,10.18-6.4,16.78-17.46,16.78-30.88.5-12.01-5.02-20.6-12.72-26.61Z"/>
      <path class="cls-1" d="M429.66,433.35v133.96h32.44v-133.96h-32.44Z"/>
      <path class="cls-1" d="M616.91,473.21c-3.64-8.48-8.66-15.76-14.88-21.91-6.22-6.11-13.71-10.92-22.3-14.59-8.69-3.53-17.78-5.3-27.35-5.3-19.01,0-36.96,7.67-49.51,19.82-6.22,6.11-11.24,13.39-14.88,21.98-3.67,8.59-5.55,17.56-5.55,27.03,0,12.93,3.18,24.77,9.58,35.34,6.4,10.64,14.91,18.94,25.55,24.84,10.67,5.94,22.3,8.87,34.81,8.87,9.79,0,18.94-1.87,27.74-5.51,8.69-3.64,16.08-8.69,22.3-14.91,6.11-6.18,10.95-13.5,14.59-21.98s5.44-17.35,5.44-26.64-1.91-18.45-5.55-27.03ZM578.64,527.38c-7,7-15.8,10.57-26.26,10.57s-19.51-3.57-26.33-10.78c-6.82-7.21-10.25-16.18-10.25-26.93s3.43-19.72,10.46-26.82c6.89-7,15.58-10.57,26.11-10.57s19.36,3.57,26.36,10.57c7,7.1,10.46,16.08,10.46,26.82s-3.57,20.14-10.57,27.14Z"/>
      <path class="cls-1" d="M403.09,606.04v81.7l-67.49-81.7h-27.6v133.96h32.44v-80.89l67,80.89h28.09v-133.96h-32.44Z"/>
      <path class="cls-1" d="M539.56,606.04h-38.48l-52.86,133.96h34.7l9.08-24.56h56.71l9.08,24.56h34.74l-52.97-133.96ZM501.29,690.22l19.12-51.7,19.05,51.7h-38.16Z"/>
      <path class="cls-1" d="M692.28,690c7.99-3.46,14.42-8.69,19.26-15.8,4.74-7.1,7.1-15.27,7.1-24.66,0-12.62-4.45-23.07-13.25-31.27-8.87-8.16-19.72-12.23-32.54-12.23h-67.67v133.96h32.37v-46.15h22.37l25.37,46.26h35.02l-28.02-50.11ZM665.85,666.22h-28.3v-32.55h28.3c11.94,0,19.54,6.71,19.54,15.87,0,9.79-7.6,16.68-19.54,16.68Z"/>
      <path class="cls-1" d="M820.66,606.04l-31.49,51.1-30.95-51.1h-39.75l54.07,84.17v49.79h32.44v-49.79l53.68-84.17h-37.99Z"/>
    </g>
    <path class="cls-1" d="M874.97,617.85c1.31-.42,2.16-1.59,2.16-3.11,0-2.12-1.52-3.43-3.89-3.43h-4.77v11.2h1.87v-4.35h2.72l2.44,4.35h2.19l-2.72-4.66ZM873.21,616.47h-2.86v-3.5h2.86c1.27,0,1.98.71,1.98,1.77s-.71,1.73-1.98,1.73ZM874.97,617.85c1.31-.42,2.16-1.59,2.16-3.11,0-2.12-1.52-3.43-3.89-3.43h-4.77v11.2h1.87v-4.35h2.72l2.44,4.35h2.19l-2.72-4.66ZM873.21,616.47h-2.86v-3.5h2.86c1.27,0,1.98.71,1.98,1.77s-.71,1.73-1.98,1.73ZM874.97,617.85c1.31-.42,2.16-1.59,2.16-3.11,0-2.12-1.52-3.43-3.89-3.43h-4.77v11.2h1.87v-4.35h2.72l2.44,4.35h2.19l-2.72-4.66ZM873.21,616.47h-2.86v-3.5h2.86c1.27,0,1.98.71,1.98,1.77s-.71,1.73-1.98,1.73ZM874.97,617.85c1.31-.42,2.16-1.59,2.16-3.11,0-2.12-1.52-3.43-3.89-3.43h-4.77v11.2h1.87v-4.35h2.72l2.44,4.35h2.19l-2.72-4.66ZM873.21,616.47h-2.86v-3.5h2.86c1.27,0,1.98.71,1.98,1.77s-.71,1.73-1.98,1.73ZM872.68,605.58c-6.54-.11-11.94,5.12-11.84,11.38-.11,6.25,5.3,11.56,11.84,11.41,6.57.14,12.12-5.12,11.98-11.41.14-6.25-5.41-11.48-11.98-11.38ZM879.74,623.75c-1.94,1.84-4.31,2.76-7.07,2.76s-5.09-.92-6.96-2.76c-1.91-1.84-2.86-4.1-2.86-6.78s.95-4.95,2.86-6.82c1.87-1.84,4.2-2.76,6.96-2.76s5.16.92,7.1,2.76c1.91,1.87,2.86,4.13,2.86,6.82s-.95,4.95-2.9,6.78ZM877.13,614.74c0-2.12-1.52-3.43-3.89-3.43h-4.77v11.2h1.87v-4.35h2.72l2.44,4.35h2.19l-2.72-4.66c1.31-.42,2.16-1.59,2.16-3.11ZM873.21,616.47h-2.86v-3.5h2.86c1.27,0,1.98.71,1.98,1.77s-.71,1.73-1.98,1.73ZM874.97,617.85c1.31-.42,2.16-1.59,2.16-3.11,0-2.12-1.52-3.43-3.89-3.43h-4.77v11.2h1.87v-4.35h2.72l2.44,4.35h2.19l-2.72-4.66ZM873.21,616.47h-2.86v-3.5h2.86c1.27,0,1.98.71,1.98,1.77s-.71,1.73-1.98,1.73ZM874.97,617.85c1.31-.42,2.16-1.59,2.16-3.11,0-2.12-1.52-3.43-3.89-3.43h-4.77v11.2h1.87v-4.35h2.72l2.44,4.35h2.19l-2.72-4.66ZM873.21,616.47h-2.86v-3.5h2.86c1.27,0,1.98.71,1.98,1.77s-.71,1.73-1.98,1.73Z"/>
  </g>
</svg>