<?xml version="1.0" encoding="UTF-8"?>
<svg id="Capa_1" data-name="Capa 1" xmlns="http://www.w3.org/2000/svg" viewBox="0 0 1080 1080">
  <defs>
    <style>
      .cls-1 {
        fill: #e3fc74;
      }

      .cls-2 {
        fill: #262626;
      }
    </style>
  </defs>
  <path d="M802.35,886.46l-.84.84-.03-.03c.31-.28.59-.56.87-.81Z"/>
  <g>
    <path class="cls-2" d="M917.58,263.83c0-55.93-45.47-101.4-101.4-101.4h-471.02c-27.11,0-51.81,10.71-70.03,28.06-.84.81-1.68,1.63-2.5,2.47l-81.5,81.47.03.03c-17.77,18.28-28.74,43.23-28.74,70.68v471.02c0,55.93,45.5,101.43,101.43,101.43h471.02c26.69,0,50.97-10.34,69.08-27.22.31-.28.59-.56.87-.81l3.45-3.45,80.55-80.43-.06-.06c17.83-18.28,28.82-43.26,28.82-70.76v-471.02ZM903.56,734.85c0,41.3-28.76,76-67.34,85.09-4.57,1.09-9.31,1.79-14.13,2.13-1.96.14-3.93.2-5.92.2h-471.02c-48.19,0-87.41-39.22-87.41-87.41v-471.02c0-1.99.06-3.95.2-5.92.34-4.82,1.04-9.56,2.13-14.13,9.08-38.58,43.79-67.34,85.09-67.34h471.02c48.19,0,87.39,39.19,87.39,87.39v471.02Z"/>
    <path class="cls-1" d="M903.56,263.83v471.02c0,41.3-28.76,76-67.34,85.09-4.57,1.09-9.31,1.79-14.13,2.13-1.96.14-3.93.2-5.92.2h-471.02c-48.19,0-87.41-39.22-87.41-87.41v-471.02c0-1.99.06-3.95.2-5.92.34-4.82,1.04-9.56,2.13-14.13,9.08-38.58,43.79-67.34,85.09-67.34h471.02c48.19,0,87.39,39.19,87.39,87.39Z"/>
  </g>
  <g>
    <g>
      <path class="cls-2" d="M307.95,394.61v-133.99h33.25l40.45,87.42,40.45-87.42h33.25v133.99h-32.46v-72.42l-30.39,64.53h-21.71l-30.39-64.53v72.42h-32.46Z"/>
      <path class="cls-2" d="M516.86,260.63v133.99h-32.46v-133.99h32.46Z"/>
      <path class="cls-2" d="M324.04,520.76c7.6,11.84,20.13,19.24,33.15,19.24,5.43,0,9.97-.99,13.71-2.96,3.65-1.88,5.52-4.34,5.52-7.4,0-2.47-1.18-4.74-3.45-6.61-2.27-1.87-4.74-3.26-7.2-4.14-2.57-.89-6.81-2.27-12.83-4.04-1.68-.49-3.06-.89-3.95-1.18-4.14-1.28-7.5-2.37-10.16-3.26-2.66-.89-5.82-1.97-9.27-3.45-7.1-2.86-10.95-5.43-15.79-9.77-6.91-6.02-10.16-14.01-10.56-25.85,0-7.89,2.37-15,7.1-21.21,4.74-6.22,10.75-10.85,18.15-14.01,7.3-3.16,15.1-4.74,23.38-4.74,22,0,39.56,9.57,52.69,28.61l-23.98,17.66c-8.29-11.84-17.86-17.76-28.71-17.76-9.37,0-15.89,4.44-15.89,10.85,0,2.47.59,4.44,2.47,6.02,1.88,1.68,3.06,2.76,6.61,4.04,3.45,1.28,5.03,1.78,9.87,3.26,2.37.79,4.34,1.48,5.82,1.97,5.72,1.87,10.46,3.55,14.21,4.93,3.75,1.48,7.7,3.16,11.74,5.03,4.04,1.97,7.3,3.95,9.77,5.92,7.7,6.02,13.22,14.6,12.73,26.64,0,13.42-6.61,24.47-16.77,30.88-10.26,6.41-22.89,9.87-36.01,9.87-12.43,0-23.78-2.66-33.94-8.09-10.26-5.33-17.86-12.93-22.79-22.69l24.37-17.76Z"/>
      <path class="cls-2" d="M462.1,433.34v133.99h-32.46v-133.99h32.46Z"/>
      <path class="cls-2" d="M517.58,560.42c-10.66-5.92-19.14-14.21-25.55-24.86-6.41-10.56-9.57-22.4-9.57-35.32,0-9.47,1.87-18.45,5.52-27.03,3.65-8.58,8.68-15.89,14.9-22,12.53-12.14,30.49-19.83,49.53-19.83,9.57,0,18.65,1.78,27.33,5.33,8.58,3.65,16.08,8.49,22.3,14.6,6.22,6.12,11.25,13.42,14.9,21.9,3.65,8.58,5.52,17.56,5.52,27.03s-1.78,18.15-5.43,26.64c-3.65,8.49-8.49,15.79-14.6,22-6.22,6.22-13.62,11.25-22.3,14.9-8.78,3.65-17.96,5.52-27.73,5.52-12.53,0-24.17-2.96-34.83-8.88ZM552.41,462.84c-10.56,0-19.24,3.55-26.15,10.56-7.01,7.1-10.46,16.08-10.46,26.84s3.45,19.73,10.26,26.94c6.81,7.2,15.59,10.75,26.34,10.75s19.24-3.55,26.24-10.56c7.01-7.01,10.56-15.98,10.56-27.13s-3.45-19.73-10.46-26.84c-7.01-7.01-15.79-10.56-26.34-10.56Z"/>
      <path class="cls-2" d="M340.41,740.05h-32.46v-133.99h27.63l67.49,81.69v-81.69h32.46v133.99h-28.12l-66.99-80.91v80.91Z"/>
      <path class="cls-2" d="M448.19,740.05l52.88-133.99h38.48l52.98,133.99h-34.73l-9.08-24.57h-56.73l-9.08,24.57h-34.73ZM520.41,638.52l-19.14,51.7h38.18l-19.04-51.7Z"/>
      <path class="cls-2" d="M637.56,740.05h-32.36v-133.99h67.68c12.83,0,23.68,4.04,32.56,12.23,8.78,8.19,13.22,18.65,13.22,31.28,0,9.37-2.37,17.56-7.1,24.67-4.83,7.1-11.25,12.33-19.24,15.79l28.02,50.12h-35.03l-25.36-46.27h-22.4v46.18ZM637.56,633.69v32.56h28.32c11.94,0,19.54-6.91,19.54-16.67,0-9.18-7.6-15.89-19.54-15.89h-28.32Z"/>
      <path class="cls-2" d="M718.5,606.06h39.76l30.98,51.11,31.47-51.11h37.99l-53.67,84.16v49.83h-32.46v-49.83l-54.07-84.16Z"/>
    </g>
    <path class="cls-2" d="M860.92,616.98c-.13-6.28,5.28-11.51,11.82-11.38,6.57-.13,12.11,5.1,11.98,11.38.13,6.28-5.41,11.53-11.98,11.4-6.54.13-11.96-5.15-11.82-11.4ZM865.77,610.15c-1.91,1.86-2.86,4.15-2.86,6.83s.95,4.92,2.86,6.77c1.88,1.84,4.21,2.77,6.96,2.77s5.15-.93,7.08-2.77c1.93-1.84,2.91-4.08,2.91-6.77s-.95-4.97-2.88-6.83c-1.93-1.84-4.3-2.77-7.1-2.77s-5.08.93-6.96,2.77ZM868.52,622.53v-11.22h4.79c2.37,0,3.88,1.33,3.88,3.44,0,1.53-.84,2.68-2.17,3.11l2.73,4.68h-2.2l-2.44-4.37h-2.71v4.37h-1.89ZM870.41,616.47h2.86c1.26,0,1.97-.67,1.97-1.73s-.71-1.75-1.97-1.75h-2.86v3.48Z"/>
  </g>
</svg>