<?xml version="1.0" encoding="UTF-8"?>
<svg id="Capa_1" data-name="Capa 1" xmlns="http://www.w3.org/2000/svg" viewBox="0 0 1080 1080">
  <defs>
    <style>
      .cls-1 {
        fill: #f1f1f1;
      }

      .cls-2 {
        fill: #262626;
      }
    </style>
  </defs>
  <path d="M804.82,889.54l-.84.84-.03-.03c.31-.28.59-.56.87-.81Z"/>
  <g>
    <path d="M275.12,190.48c-.84.81-1.68,1.63-2.5,2.47l2.47-2.5.03.03Z"/>
    <path class="cls-2" d="M917.58,263.83c0-55.93-45.47-101.4-101.4-101.4h-471.02c-27.11,0-51.81,10.71-70.03,28.06-.84.81-1.68,1.63-2.5,2.47l-81.5,81.47.03.03c-17.77,18.28-28.74,43.23-28.74,70.68v471.02c0,55.93,45.5,101.43,101.43,101.43h471.02c26.69,0,50.97-10.34,69.08-27.22.31-.28.59-.56.87-.81l3.45-3.45,80.55-80.43-.06-.06c17.83-18.28,28.82-43.26,28.82-70.76v-471.02ZM903.56,734.85c0,41.3-28.76,76-67.34,85.09-4.57,1.09-9.31,1.79-14.13,2.13-1.96.14-3.93.2-5.92.2h-471.02c-48.19,0-87.41-39.22-87.41-87.41v-471.02c0-1.99.06-3.95.2-5.92.34-4.82,1.04-9.56,2.13-14.13,9.08-38.58,43.79-67.34,85.09-67.34h471.02c48.19,0,87.39,39.19,87.39,87.39v471.02Z"/>
    <path class="cls-1" d="M903.56,263.83v471.02c0,41.3-28.76,76-67.34,85.09-4.57,1.09-9.31,1.79-14.13,2.13-1.96.14-3.93.2-5.92.2h-471.02c-48.19,0-87.41-39.22-87.41-87.41v-471.02c0-1.99.06-3.95.2-5.92.34-4.82,1.04-9.56,2.13-14.13,9.08-38.58,43.79-67.34,85.09-67.34h471.02c48.19,0,87.39,39.19,87.39,87.39Z"/>
  </g>
  <path class="cls-2" d="M339.87,717.27v-435.52h108.08l131.49,284.14,131.49-284.14h108.08v435.52h-105.51v-235.4l-98.78,209.74h-70.55l-98.78-209.74v235.4h-105.51Z"/>
</svg>